<svg width="32" height="32" viewBox="0 0 32 32" fill="none" xmlns="http://www.w3.org/2000/svg">
<path d="M16.3855 0.482666C7.823 0.482666 0.885498 7.42017 0.885498 15.9827C0.885498 24.5452 7.823 31.4827 16.3855 31.4827C24.948 31.4827 31.8855 24.5452 31.8855 15.9827C31.8855 7.42017 24.948 0.482666 16.3855 0.482666ZM23.9855 20.0514C24.2792 20.3452 24.2792 20.8202 23.9855 21.1139L21.5105 23.5827C21.2167 23.8764 20.7417 23.8764 20.448 23.5827L16.3855 19.4827L12.3167 23.5827C12.023 23.8764 11.548 23.8764 11.2542 23.5827L8.7855 21.1077C8.49175 20.8139 8.49175 20.3389 8.7855 20.0452L12.8855 15.9827L8.7855 11.9139C8.49175 11.6202 8.49175 11.1452 8.7855 10.8514L11.2605 8.37642C11.5542 8.08267 12.0292 8.08267 12.323 8.37642L16.3855 12.4827L20.4542 8.38267C20.748 8.08892 21.223 8.08892 21.5167 8.38267L23.9917 10.8577C24.2855 11.1514 24.2855 11.6264 23.9917 11.9202L19.8855 15.9827L23.9855 20.0514Z" fill="#FF0000"/>
</svg>
