<svg width="401" height="401" viewBox="0 0 401 401" fill="none" xmlns="http://www.w3.org/2000/svg">
<circle cx="200.715" cy="200.363" r="200" fill="#353DFF"/>
<path d="M192.845 171.621C176.764 166.999 165.046 161.335 157.689 154.629C150.397 147.858 146.751 139.525 146.751 129.629C146.751 118.431 151.211 109.186 160.13 101.895C169.115 94.5378 180.768 90.8594 195.091 90.8594C204.857 90.8594 213.548 92.7474 221.165 96.5234C228.848 100.299 234.772 105.508 238.939 112.148C243.171 118.789 245.287 126.048 245.287 133.926H226.439C226.439 125.332 223.704 118.594 218.236 113.711C212.767 108.763 205.052 106.289 195.091 106.289C185.846 106.289 178.62 108.34 173.412 112.441C168.268 116.478 165.697 122.109 165.697 129.336C165.697 135.13 168.138 140.046 173.021 144.082C177.969 148.053 186.335 151.699 198.119 155.02C209.968 158.34 219.212 162.018 225.853 166.055C232.559 170.026 237.507 174.681 240.697 180.02C243.952 185.358 245.579 191.641 245.579 198.867C245.579 210.391 241.087 219.635 232.103 226.602C223.119 233.503 211.107 236.953 196.068 236.953C186.302 236.953 177.188 235.098 168.724 231.387C160.26 227.611 153.718 222.467 149.095 215.957C144.538 209.447 142.259 202.057 142.259 193.789H161.107C161.107 202.383 164.264 209.186 170.579 214.199C176.96 219.147 185.456 221.621 196.068 221.621C205.964 221.621 213.548 219.603 218.822 215.566C224.095 211.53 226.732 206.029 226.732 199.062C226.732 192.096 224.29 186.725 219.408 182.949C214.525 179.108 205.671 175.332 192.845 171.621Z" fill="white"/>
<circle cx="142.215" cy="341.618" r="17.8818" fill="white"/>
<circle cx="200.715" cy="341.618" r="17.8818" fill="white"/>
<circle cx="259.215" cy="341.618" r="17.8818" fill="white"/>
<path d="M172.542 250.172H175.369V265.274C175.369 267.315 174.754 268.912 173.524 270.064C172.303 271.217 170.672 271.793 168.631 271.793C166.512 271.793 164.862 271.251 163.68 270.167C162.498 269.083 161.907 267.564 161.907 265.611H164.72C164.72 266.832 165.052 267.784 165.716 268.468C166.39 269.151 167.362 269.493 168.631 269.493C169.793 269.493 170.731 269.127 171.444 268.395C172.166 267.662 172.532 266.637 172.542 265.318V250.172ZM186.444 261.993C184.031 261.3 182.274 260.45 181.17 259.444C180.076 258.429 179.53 257.179 179.53 255.694C179.53 254.015 180.198 252.628 181.536 251.534C182.884 250.431 184.632 249.879 186.781 249.879C188.245 249.879 189.549 250.162 190.692 250.729C191.844 251.295 192.733 252.076 193.358 253.072C193.992 254.068 194.31 255.157 194.31 256.339H191.483C191.483 255.05 191.073 254.039 190.252 253.307C189.432 252.564 188.275 252.193 186.781 252.193C185.394 252.193 184.31 252.501 183.529 253.116C182.757 253.722 182.371 254.566 182.371 255.65C182.371 256.52 182.738 257.257 183.47 257.862C184.212 258.458 185.467 259.005 187.235 259.503C189.012 260.001 190.399 260.553 191.395 261.158C192.401 261.754 193.143 262.452 193.621 263.253C194.11 264.054 194.354 264.996 194.354 266.08C194.354 267.809 193.68 269.195 192.332 270.24C190.985 271.275 189.183 271.793 186.927 271.793C185.462 271.793 184.095 271.515 182.825 270.958C181.556 270.392 180.574 269.62 179.881 268.644C179.198 267.667 178.856 266.559 178.856 265.318H181.683C181.683 266.607 182.156 267.628 183.104 268.38C184.061 269.122 185.335 269.493 186.927 269.493C188.411 269.493 189.549 269.19 190.34 268.585C191.131 267.979 191.527 267.154 191.527 266.109C191.527 265.064 191.16 264.259 190.428 263.692C189.696 263.116 188.367 262.55 186.444 261.993ZM214.378 261.524C214.378 263.614 214.027 265.44 213.323 267.003C212.62 268.556 211.624 269.742 210.335 270.562C209.046 271.383 207.542 271.793 205.823 271.793C204.144 271.793 202.655 271.383 201.356 270.562C200.057 269.732 199.046 268.556 198.323 267.032C197.611 265.499 197.244 263.727 197.225 261.715V260.177C197.225 258.126 197.581 256.314 198.294 254.742C199.007 253.17 200.013 251.969 201.312 251.139C202.62 250.299 204.115 249.879 205.794 249.879C207.503 249.879 209.007 250.294 210.306 251.124C211.615 251.944 212.62 253.141 213.323 254.713C214.027 256.275 214.378 258.097 214.378 260.177V261.524ZM211.58 260.147C211.58 257.618 211.073 255.68 210.057 254.332C209.041 252.975 207.62 252.296 205.794 252.296C204.017 252.296 202.615 252.975 201.59 254.332C200.574 255.68 200.052 257.555 200.023 259.957V261.524C200.023 263.976 200.535 265.904 201.561 267.311C202.596 268.707 204.017 269.405 205.823 269.405C207.64 269.405 209.046 268.746 210.042 267.428C211.038 266.1 211.551 264.2 211.58 261.729V260.147ZM234.989 271.5H232.161L221.424 255.064V271.5H218.597V250.172H221.424L232.191 266.681V250.172H234.989V271.5Z" fill="white"/>
</svg>
